<svg width="1024" height="1024" viewBox="0 0 1024 1024" xmlns="http://www.w3.org/2000/svg">
  <!-- egg k=0.08 girth 1.06 + optical HV + join taper; weld D -->
  <path fill="#F2F2F7" fill-rule="evenodd" d="
    M 781.04 207.48 C 762.03 184.73 741.07 164.06 718.45 146.03 C 695.82 128.00 671.52 112.60 645.93 100.39 C 620.34 88.18 593.47 79.18 565.97 73.85 C 538.46 68.53 510.35 66.99 482.46 68.97 C 454.58 70.95 426.90 76.46 400.06 85.29 C 373.22 94.11 347.22 106.23 322.56 121.26 C 297.89 136.28 274.54 154.21 252.91 174.59 C 231.27 194.98 211.35 217.83 193.51 242.67 C 175.67 267.51 159.91 294.34 146.61 322.65 C 133.32 350.95 122.48 380.73 114.48 411.39 C 106.47 442.04 101.29 473.58 99.24 505.31 C 97.19 537.05 98.26 568.99 102.63 600.38 C 107.00 631.76 114.67 662.59 125.60 692.07 C 136.53 721.55 150.71 749.67 167.85 775.67 C 184.99 801.67 205.08 825.54 227.56 846.69 C 250.05 867.84 274.93 886.26 301.51 901.57 C 328.08 916.88 356.35 929.08 385.58 937.98 C 414.82 946.89 445.01 952.49 475.44 954.74 C 505.87 956.98 536.54 955.87 566.73 951.40 C 596.92 946.93 626.64 939.12 655.15 928.05 C 683.66 916.98 710.96 902.59 736.09 884.96 C 761.21 867.33 784.17 846.57 804.31 823.29 C 824.44 800.02 841.75 774.26 855.85 746.80 C 869.95 719.34 880.84 690.20 888.50 660.20 C 893.47 640.72 903.07 619.81 913.20 602.45 A 200.00 240.00 0 0 0 830.18 245.10 C 812.67 235.84 793.74 222.67 781.04 207.48 Z M 716.18 729.83 C 704.58 743.90 691.74 756.73 677.84 768.22 C 663.94 779.70 648.97 789.85 633.13 798.55 C 617.28 807.25 600.51 814.46 583.08 819.80 C 565.64 825.15 547.57 828.69 529.30 830.31 C 511.02 831.93 492.55 831.63 474.35 829.43 C 456.15 827.23 438.21 823.12 420.98 817.23 C 403.75 811.34 387.21 803.66 371.72 794.38 C 356.23 785.11 341.78 774.25 328.60 762.02 C 315.43 749.79 303.52 736.20 293.04 721.46 C 282.55 706.73 273.47 690.84 265.90 674.02 C 258.32 657.21 252.25 639.45 247.75 621.00 C 243.24 602.54 240.30 583.39 238.95 563.82 C 237.60 544.25 237.84 524.27 239.65 504.22 C 241.46 484.18 244.85 464.07 249.71 444.28 C 254.58 424.49 260.93 405.03 268.61 386.28 C 276.29 367.54 285.30 349.53 295.42 332.61 C 305.55 315.70 316.79 299.90 328.89 285.52 C 340.98 271.15 353.93 258.21 367.45 246.93 C 380.97 235.66 395.06 226.05 409.45 218.23 C 423.84 210.41 438.53 204.37 453.33 200.14 C 468.13 195.91 483.05 193.48 497.97 192.84 C 512.89 192.20 527.81 193.33 542.75 196.01 C 557.69 198.70 572.66 203.02 587.56 209.08 C 602.47 215.13 617.30 222.93 631.82 232.49 C 642.00 239.19 640.99 262.56 631.81 270.58 A 200.00 240.00 0 0 0 703.69 698.32 C 714.13 701.26 723.08 721.46 716.18 729.83 Z M 869.44 464.68 A 120 144 0 1 0 629.44 464.68 A 120 144 0 1 0 869.44 464.68 Z
  "/>
</svg>
