<svg width="1024" height="1024" viewBox="0 0 1024 1024" xmlns="http://www.w3.org/2000/svg">
  <!-- stroke A  D as-is (similar ellipses); weld D -->
  <path fill="#F2F2F7" fill-rule="evenodd" d="
    M 786.39 207.79 A 378.00 453.60 0 1 0 852.60 693.01 C 859.37 674.34 872.36 655.24 885.62 640.45 A 200.00 240.00 0 0 0 833.87 247.11 C 816.65 237.49 798.26 223.55 786.39 207.79 Z M 692.29 726.20 A 258.00 309.60 0 1 1 624.89 237.23 C 635.39 243.77 634.98 267.39 625.98 275.87 A 200.00 240.00 0 0 0 680.58 690.00 C 691.72 694.91 699.88 716.69 692.29 726.20 Z M 869.44 464.68 A 120 144 0 1 0 629.44 464.68 A 120 144 0 1 0 869.44 464.68 Z
  "/>
</svg>
